<?xml version='1.0' encoding='UTF-8'?>
<svg x="0px" y="0px" viewBox="0 0 32 32" version="1.1" xmlns="http://www.w3.org/2000/svg" xmlns:xlink="http://www.w3.org/1999/xlink" xml:space="preserve" id="Layer_1">
  <polygon points="7,18 7,20 0,20 0,0 30,0 30,20 23,20 23,18 28,18 28,2 2,2 2,18 " fill="#727272" class="Black" />
  <path d="M9,23l-7,7l2,2l7-7l0,0L9,23L9,23z" fill="#727272" class="Black" />
  <polygon points="28,2 2,2 2,18 8,18 8,22 23,22 23,18 28,18 " fill="#FFFFFF" class="White" />
  <g opacity="0.3" id="Layer_2" class="st0">
    <polygon points="11,12 19,12 23,20 7,20  " fill="#727272" opacity="0.3" class="Black" />
  </g>
  <g opacity="0.6" id="Layer_3" class="st1">
    <polygon points="7,20 23,20 23,22 7,22  " fill="#727272" opacity="0.6" class="Black" />
  </g>
  <path d="M15,10c-5,0-9,4-9,9s4,9,9,9s9-4,9-9S20,10,15,10z M15,25.5c-3.6,0-6.5-2.9-6.5-6.5s2.9-6.5,6.5-6.5  s6.5,2.9,6.5,6.5S18.6,25.5,15,25.5z" fill="#1177D7" class="Blue" />
</svg>