<?xml version='1.0' encoding='UTF-8'?>
<svg viewBox="-2 -4 32 32" xmlns="http://www.w3.org/2000/svg">
  <g id="Layer_1" transform="translate(-2, -4)">
    <g id="Photo">
      <path d="M29, 8L24, 8L20, 4L12, 4L8, 8L3, 8C2.5, 8 2, 8.5 2, 9L2, 27C2, 27.5 2.5, 28 3, 28L29, 28C29.5, 28 30, 27.5 30, 27L30, 9C30, 8.5 29.5, 8 29, 8zM8, 14C6.9, 14 6, 13.1 6, 12C6, 10.9 6.9, 10 8, 10C9.1, 10 10, 10.9 10, 12C10, 13.1 9.1, 14 8, 14zM16, 24C12.7, 24 10, 21.3 10, 18C10, 14.7 12.7, 12 16, 12C19.3, 12 22, 14.7 22, 18C22, 21.3 19.3, 24 16, 24z" fill="#727272" class="Black" />
    </g>
  </g>
  <g id="Layer_1" transform="translate(-2, -4)">
    <g id="Photo">
      <circle cx="16" cy="18" r="4" fill="#727272" class="Black" />
    </g>
  </g>
  <g id="Layer_1" transform="translate(14, 12)">
    <g id="Forbid_1_">
      <circle cx="8" cy="8" r="8" fill="#D11C1C" class="Red" />
    </g>
  </g>
  <g id="Layer_1" transform="translate(14, 12)">
    <g id="Forbid_1_">
      <path d="M11.5, 3.1C10.5, 2.4 9.3, 2 8, 2C4.7, 2 2, 4.7 2, 8C2, 9.3 2.4, 10.5 3.1, 11.5L11.5, 3.1z" fill="#FFFFFF" class="White" />
    </g>
  </g>
  <g id="Layer_1" transform="translate(14, 12)">
    <g id="Forbid_1_">
      <path d="M12.9, 4.5L4.5, 12.9C5.5, 13.6 6.7, 14 8, 14C11.3, 14 14, 11.3 14, 8C14, 6.7 13.6, 5.5 12.9, 4.5z" fill="#FFFFFF" class="White" />
    </g>
  </g>
</svg>